# xmcd CD database file
#
# Track frame offsets:
#	150
#	14278
#	25172
#	35384
#	48289
#	62435
#	74431
#	87536
#	121298
#	133437
#	161638
#	175018
#	185091
#	199174
#	210909
#	221265
#	240774
#	252905
#	266776
#	295410
#
# Disc length: 4085 seconds
#
# Revision: 2
# Processed by: cddbd v1.5.2PL0 Copyright (c) Steve Scherf et al.
# Submitted via: CDex 1.51
#
DISCID=220ff314
DTITLE=Ray Charles - The Very Best of
DYEAR=2006
DGENRE=Blues
TTITLE0=Kiss Me Baby
TTITLE1=A Sentimental Blues
TTITLE2=Ain't that Fine
TTITLE3=Baby Won't You Please Come Home
TTITLE4=Blues is My Middle Name
TTITLE5=Can't You See Darling
TTITLE6=Don't Put All Your Dreaming In One Basket
TTITLE7=Georgia On My Mind
TTITLE8=Heartbreaker
TTITLE9=I Got A Woman
TTITLE10=I'm Goin' Down On The River
TTITLE11=I'm Movin' On
TTITLE12=Late In The Evening Blues
TTITLE13=She s On The Ball
TTITLE14=Sitting On The Top Of The World
TTITLE15=Talking About You
TTITLE16=Tell Me How Do You Feel
TTITLE17=This Love Is Mine
TTITLE18=What d I Say
TTITLE19=You Be My Baby
EXTD=YEAR: 2006
EXTT0=
EXTT1=
EXTT2=
EXTT3=
EXTT4=
EXTT5=
EXTT6=
EXTT7=
EXTT8=
EXTT9=
EXTT10=
EXTT11=
EXTT12=
EXTT13=
EXTT14=
EXTT15=
EXTT16=
EXTT17=
EXTT18=
EXTT19=
PLAYORDER=
